<svg id="logo.svg" xmlns="http://www.w3.org/2000/svg" xmlns:xlink="http://www.w3.org/1999/xlink" width="161" height="171" viewBox="0 0 161 171">
  <defs>
    <style>
      .cls-1 {
        fill: #fff;
      }

      .cls-2 {
        fill-rule: evenodd;
        filter: url(#filter);
      }
    </style>
    <filter id="filter" x="95.656" y="112.812" width="65.344" height="57.5" filterUnits="userSpaceOnUse">
      <feFlood result="flood" flood-color="#fff"/>
      <feComposite result="composite" operator="in" in2="SourceGraphic"/>
      <feBlend result="blend" in2="SourceGraphic"/>
    </filter>
  </defs>
  <path class="cls-1" d="M116.28,0h0.011A44.709,44.709,0,0,1,161,44.709V51.5a6.689,6.689,0,0,1-6.689,6.689H121.048a9.736,9.736,0,0,1-9.736-9.736V4.968A4.968,4.968,0,0,1,116.28,0Z"/>
  <path class="cls-1" d="M6.761,112.188H39.327a9.736,9.736,0,0,1,9.736,9.736V165.5a4.906,4.906,0,0,1-4.906,4.906h0A44.156,44.156,0,0,1,0,126.25v-7.3A6.761,6.761,0,0,1,6.761,112.188Z"/>
  <path id="Rectangle_4_copy" data-name="Rectangle 4 copy" class="cls-2" d="M117.776,112.8H155.2a5.792,5.792,0,0,1,5.8,5.781v8.046a43.42,43.42,0,0,1-13.023,31.1,41.4,41.4,0,0,1-16.861,9.361,73.24,73.24,0,0,1-12.725,2.47q-3.645.408-7.8,0.6-2.078.094-4.286,0.131-1.1.018-2.241,0.022t-2.306-.008c-2.764-.026-4.7-0.59-5.579-1.48a1.876,1.876,0,0,1-.462-0.725,1.592,1.592,0,0,1-.079-0.4,1.71,1.71,0,0,1,0-.21,1.844,1.844,0,0,1,.026-0.215,3.648,3.648,0,0,1,1.182-1.88c14.954-15.421,15.962-30.99,15.422-46.759a5.614,5.614,0,0,1,1.482-4.121,5.469,5.469,0,0,1,4.023-1.708h0Z"/>
  <path class="cls-1" d="M99.4,0.594H99.43a5.32,5.32,0,0,1,5.32,5.32V128.439A42.561,42.561,0,0,1,62.189,171H62.164a5.32,5.32,0,0,1-5.32-5.32V43.155A42.561,42.561,0,0,1,99.4.594Z"/>
</svg>
